<svg xmlns="http://www.w3.org/2000/svg" viewBox="0 0 445.2 525.69"><circle cx="222.6" cy="303.09" r="219.1" style="fill:#fff;stroke:#000;stroke-miterlimit:10;stroke-width:7px"/><circle cx="222.6" cy="303.09" r="168.06" style="fill:#cb0419;stroke:#000;stroke-miterlimit:10;stroke-width:7px"/><path d="M182.19,380.93s8.86,6.95,14.39,6.95,13.06-6.35,14.12-8.47,6.71-5.53,5.88-20.47c0,0-.47,18.71-2.7,24.24,0,0-6.71,16.23-6,21.41s22.94,21.18,31.29,22.12,24.59,2.94,20.12,2.59,6.71,3.17,9.53,2.35,1.53-4,0-5.3,34.82,6.12,51.06,1.65,21.41-6,24.7-8.94,3.65-5.41,5.77-6.59,6.12-2.12,6.7-6-9.29-14.7-8.94-22.12-3.17-30.58-2-35.41,4.24-1.76,4.47-6.94c0,0,6.83,15.53,10.83,17.06,0,0,11.17,13.53,18.59,13.65s24.23-13.06,25.05-17.65-1.23-6.12,1.06-7,7.3-2.18,8.12-5.47.82-13.18-.82-15.29-6-12.48-9.53-13.65-23.77,0-23.77,0-12.64-35.3-17.41-39.88-4.59-10.42-24.35-15.89c0,0-92.3-3.35-97.41-1.94S199,273.32,193.55,282.15s-5.2,7.73-7.08,13.15-.24,27.88-1.77,32.82S182.19,380.93,182.19,380.93Z" transform="translate(-48.9 -9.78)" style="fill:#fff;stroke:#000;stroke-linecap:round;stroke-linejoin:round;stroke-width:2px;fill-rule:evenodd"/><path d="M192.73,332.6s10.62,10,10.09,14.93" transform="translate(-48.9 -9.78)" style="fill:none;stroke:#000;stroke-linecap:round;stroke-linejoin:round;stroke-width:2px"/><path d="M218,348.2s-8.48-7.8-9.36-17-1.76-33.17.53-37.71" transform="translate(-48.9 -9.78)" style="fill:none;stroke:#000;stroke-linecap:round;stroke-linejoin:round;stroke-width:2px"/><path d="M205.11,348.94s3.53,4.06,3.53,7.94" transform="translate(-48.9 -9.78)" style="fill:none;stroke:#000;stroke-linecap:round;stroke-linejoin:round;stroke-width:2px"/><path d="M208.64,283.3s-.53-8.48,1.41-9.18" transform="translate(-48.9 -9.78)" style="fill:none;stroke:#000;stroke-linecap:round;stroke-linejoin:round;stroke-width:2px"/><path d="M235.17,361.88s-4-.7-4.94-3.06" transform="translate(-48.9 -9.78)" style="fill:none;stroke:#000;stroke-linecap:round;stroke-linejoin:round;stroke-width:2px"/><path d="M327.41,361.88s4.7-2.35,6.82-6.11" transform="translate(-48.9 -9.78)" style="fill:none;stroke:#000;stroke-linecap:round;stroke-linejoin:round;stroke-width:2px"/><path d="M164.17,335.18s-7.76,10.76-8.47,13.59-1.94,16.41,0,18.88,2.31,1.94,3.72,5.12,5.46,8.82,10.22,10.41,9.88.88,11.83-1.41,5.64-6,6-9.8,9-4.67,9.53-9.09-1.77-28.58-6.36-34.58-9.7-7.06-12.17-6.53S164.17,335.18,164.17,335.18Z" transform="translate(-48.9 -9.78)" style="fill:#fff;stroke:#000;stroke-miterlimit:10;stroke-width:2px;fill-rule:evenodd"/><path d="M291.17,276.24s-6.82,3.53-7.53,6.35,1.41,10.35-2.59,12.23-7.64,3.3-13.47,2.77-9.44-.74-11.2-.14c-3.27,1.2-6,5.55-6.38,7.67a50.91,50.91,0,0,0-.71,6.76" transform="translate(-48.9 -9.78)" style="fill:none;stroke:#000;stroke-linecap:round;stroke-linejoin:round;stroke-width:2px"/><path d="M250.47,319.12c4.23,7.94,3.88,100.06,13.76,105.7" transform="translate(-48.9 -9.78)" style="fill:none;stroke:#000;stroke-linecap:round;stroke-linejoin:round;stroke-width:2px"/><path d="M253.05,271c-2.07-1.07,4.46,1.05,5.64,5.29" transform="translate(-48.9 -9.78)" style="fill:none;stroke:#000;stroke-linecap:round;stroke-linejoin:round;stroke-width:2px;fill-rule:evenodd"/><path d="M264.23,283.3s5.65,4.58,8.83,5.64" transform="translate(-48.9 -9.78)" style="fill:none;stroke:#000;stroke-linecap:round;stroke-linejoin:round;stroke-width:2px;fill-rule:evenodd"/><path d="M289.13,294.06s11.45-2.29,16.92-6.53" transform="translate(-48.9 -9.78)" style="fill:none;stroke:#000;stroke-linecap:round;stroke-linejoin:round;stroke-width:2px;fill-rule:evenodd"/><path d="M312.94,281.71s4.23-3.36,5.47-5.47" transform="translate(-48.9 -9.78)" style="fill:none;stroke:#000;stroke-linecap:round;stroke-linejoin:round;stroke-width:2px;fill-rule:evenodd"/><path d="M279.23,290.8s.36-11.15-6.17-16.38" transform="translate(-48.9 -9.78)" style="fill:none;stroke:#000;stroke-linecap:round;stroke-linejoin:round;stroke-width:2px;fill-rule:evenodd"/><path d="M349.64,268.71S346.47,273.94,347,279" transform="translate(-48.9 -9.78)" style="fill:none;stroke:#000;stroke-linecap:round;stroke-linejoin:round;stroke-width:2px;fill-rule:evenodd"/><path d="M348.29,288.94s-2.18,14.83,3.12,19.77" transform="translate(-48.9 -9.78)" style="fill:none;stroke:#000;stroke-linecap:round;stroke-linejoin:round;stroke-width:2px;fill-rule:evenodd"/><path d="M362,312s-6,5.39-5.3,11.7" transform="translate(-48.9 -9.78)" style="fill:none;stroke:#000;stroke-linecap:round;stroke-linejoin:round;stroke-width:2px;fill-rule:evenodd"/><path d="M408.23,347.53a51,51,0,0,1-5.82,2.11c-2.75.65-4.89,4.48-7.59,4.6s-11.71,3.11-16.59,2.64-11.82-3.61-14.82-5.82-6.29-3.54-6.77-6.62,0-13.06.94-15.09,5.47-9.61,7.86-10.67a23.2,23.2,0,0,1,8.91-1.68c3.17,0,20-9,20-9" transform="translate(-48.9 -9.78)" style="fill:none;stroke:#000;stroke-linecap:round;stroke-linejoin:round;stroke-width:2px;fill-rule:evenodd"/><path d="M349.64,326.88c1.59,4.24,1.3,14.22,1.18,16.15" transform="translate(-48.9 -9.78)" style="fill:#fcefcf;stroke:#000;stroke-linecap:round;stroke-linejoin:round;stroke-width:2px;fill-rule:evenodd"/><circle cx="225.04" cy="369.66" r="8.12" style="stroke:#000;stroke-miterlimit:10;stroke-width:2px"/><path d="M269.51,378.41c-.58,3.94,4.61,8,1.51,7.51s-5.14-4-4.56-8,3.56-6.77,6.66-6.32S270.09,374.47,269.51,378.41Z" transform="translate(-48.9 -9.78)" style="fill:#fff;fill-rule:evenodd;opacity:0.88"/><circle cx="225.04" cy="369.66" r="8.12" style="stroke:#000;stroke-miterlimit:10;stroke-width:2px"/><path d="M269.51,378.41c-.58,3.94,4.61,8,1.51,7.51s-5.14-4-4.56-8,3.56-6.77,6.66-6.32S270.09,374.47,269.51,378.41Z" transform="translate(-48.9 -9.78)" style="fill:#fff;fill-rule:evenodd;opacity:0.88"/><circle cx="259.39" cy="361.81" r="8.12" style="stroke:#000;stroke-miterlimit:10;stroke-width:2px"/><path d="M303.86,370.56c-.58,3.95,4.62,8,1.52,7.52s-5.15-4-4.57-8,3.56-6.78,6.66-6.32S304.44,366.62,303.86,370.56Z" transform="translate(-48.9 -9.78)" style="fill:#fff;fill-rule:evenodd;opacity:0.88"/><circle cx="253.27" cy="328.78" r="7.32" style="stroke:#000;stroke-miterlimit:10;stroke-width:2px"/><path d="M298.18,337.63c-.52,3.55,4.16,7.18,1.37,6.77s-4.64-3.62-4.12-7.17,3.21-6.11,6-5.7S298.7,334.07,298.18,337.63Z" transform="translate(-48.9 -9.78)" style="fill:#fff;fill-rule:evenodd;opacity:0.88"/><circle cx="219.34" cy="332.54" r="7.32" style="stroke:#000;stroke-miterlimit:10;stroke-width:2px"/><path d="M264.25,341.39c-.52,3.56,4.16,7.19,1.37,6.78S261,344.55,261.5,341s3.21-6.1,6-5.69S264.77,337.84,264.25,341.39Z" transform="translate(-48.9 -9.78)" style="fill:#fff;fill-rule:evenodd;opacity:0.88"/><circle cx="215.95" cy="301.48" r="6.6" style="stroke:#000;stroke-miterlimit:10;stroke-width:2px"/><path d="M261.25,310.42c-.47,3.2,3.75,6.48,1.23,6.11s-4.18-3.27-3.71-6.47,2.89-5.51,5.41-5.14S261.72,307.21,261.25,310.42Z" transform="translate(-48.9 -9.78)" style="fill:#fff;fill-rule:evenodd;opacity:0.88"/><circle cx="243.28" cy="294.88" r="6.6" style="stroke:#000;stroke-miterlimit:10;stroke-width:2px"/><path d="M288.58,303.82c-.46,3.21,3.76,6.48,1.24,6.11s-4.18-3.27-3.71-6.47,2.89-5.5,5.41-5.13S289.05,300.62,288.58,303.82Z" transform="translate(-48.9 -9.78)" style="fill:#fff;fill-rule:evenodd;opacity:0.88"/><path d="M390.47,312s5.76.83,7.41-.78,4.59-7.26,4.47-9,4.94-7.42,5.17-9.77.71-9.5-.82-9.86-.23-6.76-.94-9.15a5.9,5.9,0,0,0-3.76-3.69c-1.06-.47-.83-7.89-4-8.24a35.43,35.43,0,0,0-4.06-.38c-.8,0,.35-7.94-4.5-7.59s-13.53,19.12-14,19.91-2.89,8.51-1.74,9.43c0,0-4.15-2.16-4.23-3s-5.12-12.17-9-10.76-4.82,2.1-4.95,5.47,3.89,13.41,5.21,16.24c2.65,5.73,2.38,16.28,14.82,21.24l-7.14-4s-2.12,16.77-1.42,19.06-2.29.53-2.29.53,10.5,14.56,22.41,13.85,18.44-6.65,19.06-9,1.58-6.82-1.15-9.2c-4-3-7.75-9.33-7.92-11.53" transform="translate(-48.9 -9.78)" style="fill:#fcefcf;stroke:#000;stroke-linecap:round;stroke-linejoin:round;stroke-width:2px;fill-rule:evenodd"/><path d="M397.29,291.41c3.71-1.59,4.94-10,7.41-10.35" transform="translate(-48.9 -9.78)" style="fill:none;stroke:#000;stroke-linecap:round;stroke-linejoin:round;stroke-width:2px;fill-rule:evenodd"/><path d="M393.41,283.91c2.29-1.59,5.29-3.88,5.38-8s1.21-5.53,2.21-5.82" transform="translate(-48.9 -9.78)" style="fill:none;stroke:#000;stroke-linecap:round;stroke-linejoin:round;stroke-width:2px;fill-rule:evenodd"/><path d="M386.7,276.24c1.85-1.33,2.3-10.86,7.32-14.39" transform="translate(-48.9 -9.78)" style="fill:none;stroke:#000;stroke-linecap:round;stroke-linejoin:round;stroke-width:2px;fill-rule:evenodd"/><path d="M173.71,323s6.17,1.79,6.52,7.09,3.53,20.7-1.29,26-5.06,9.06-9.3,9.06-6-2.83-7.64-5.3-4.61-10.46-6.4-10.64c3.4-4.42,6.75-15.24,6.75-15.24Z" transform="translate(-48.9 -9.78)" style="fill:#fcefcf;stroke:#000;stroke-linecap:round;stroke-linejoin:round;stroke-width:2px;fill-rule:evenodd"/><path d="M170.45,314.36c5.9-3.27,8.16-9.82,8.68-15a6.24,6.24,0,0,0-.14-2.62,4.4,4.4,0,0,0-2.29-2.47,7.91,7.91,0,0,0-3.37-.68,4.14,4.14,0,0,0-2.06.38,5.83,5.83,0,0,0-2,2.49,17.44,17.44,0,0,1-3.48,4.31" transform="translate(-48.9 -9.78)" style="fill:#fcefcf;stroke:#000;stroke-linecap:round;stroke-linejoin:round;stroke-width:2px;fill-rule:evenodd"/><path d="M169.68,330.52l2.22-3.76a17.6,17.6,0,0,0,1.81-3.73c1-3.3,0-6.88-1.63-9.94l-15.16,5.5-3.73,23.48a3,3,0,0,0,.48,2.25,4.43,4.43,0,0,0,1.15,1.21,10.56,10.56,0,0,0,2.45.16c2.41-.24,3.45-.61,5.11-2.37a10.44,10.44,0,0,0,1.61-2.61,18.4,18.4,0,0,0,2-5.36" transform="translate(-48.9 -9.78)" style="fill:#fcefcf;stroke:#000;stroke-linecap:round;stroke-linejoin:round;stroke-width:2px;fill-rule:evenodd"/><path d="M169.17,314c1.5-2.84,2.31-4.91,1.25-7.94-.9-2.6-3.4-4.26-5.73-5.72-3.89-2.44-8.3-5-12.8-4.05a9,9,0,0,0-2.46,3.44c-.47,1.17-.68,2.42-1.1,3.61a11.32,11.32,0,0,1-7.54,7,21.6,21.6,0,0,1-1.72,12.85,9.21,9.21,0,0,0-.95,2.51,6.57,6.57,0,0,0,.57,3.31,21.73,21.73,0,0,0,17.21,13.37c2.63-1.34,2.35-6-.42-7l4.07-.19a9.64,9.64,0,0,0,.9-7.06c2,.45,2.72,1.5,5.66-1.09,1.27-2.81,1.87-3.61,1.08-6.59a5.41,5.41,0,0,1-.35-2.53c.32-1.48,1.92-2.23,3.13-3.15,2.92-2.21,1.25-7.11-.38-10.38" transform="translate(-48.9 -9.78)" style="fill:#fcefcf;stroke:#000;stroke-linecap:round;stroke-linejoin:round;stroke-width:2px;fill-rule:evenodd"/><path d="M156.92,326.38a10,10,0,0,0-3-2,9.68,9.68,0,0,1-2.06-1.21,2.93,2.93,0,0,1-1.11-2" transform="translate(-48.9 -9.78)" style="fill:none;stroke:#000;stroke-linecap:round;stroke-linejoin:round;stroke-width:2px;fill-rule:evenodd"/><path d="M160,313.36a2.33,2.33,0,0,1-1.36-.66,12.61,12.61,0,0,0-1.74-1.17,2.35,2.35,0,0,1-1-.81" transform="translate(-48.9 -9.78)" style="fill:none;stroke:#000;stroke-linecap:round;stroke-linejoin:round;stroke-width:2px;fill-rule:evenodd"/><path d="M152.29,335.35a19.47,19.47,0,0,1-2.54-1.17,7.86,7.86,0,0,1-1.85-1.79,5.87,5.87,0,0,0-.76-.95" transform="translate(-48.9 -9.78)" style="fill:none;stroke:#000;stroke-linecap:round;stroke-linejoin:round;stroke-width:2px;fill-rule:evenodd"/><path d="M187.89,274.75c3.34-8,6.8-22.38,8.17-28.36a1,1,0,0,0-1.61-1L190.93,248a1,1,0,0,1-1.63-.76l-.34-6.8L183.89,245a1,1,0,0,1-1.69-.63l-.58-4.37a1,1,0,0,0-1.87-.41c-3.29,5.17-11.1,17.75-14.44,25.74-4.13,9.89,4.58,12.88,5.21,13.08h0l-35,80.12a2.54,2.54,0,0,0,1.36,3.32l2.27.95a2.54,2.54,0,0,0,3.32-1.37l32.39-81.2h0C175.51,280.55,183.76,284.65,187.89,274.75Z" transform="translate(-48.9 -9.78)" style="fill:#fdd615;stroke:#000;stroke-linecap:round;stroke-linejoin:round;stroke-width:2px;fill-rule:evenodd"/><path d="M171.88,268.71c1.75,2.23,5.75,4.47,8.59,4.48" transform="translate(-48.9 -9.78)" style="fill:none;stroke:#000;stroke-linecap:round;stroke-linejoin:round;stroke-width:2px;fill-rule:evenodd"/><path d="M176.35,224c47.29,49.88,120,53.82,120,53.82,6.53.36,11.65-.17,16.23-2.29l30.53-19.23c6.71-5.34,21.66-13.48,26.21-18.8L404,204.59,378.58,80.35,266.7,42.94,184.82,63.06,158,133.3l8,70.94Z" transform="translate(-48.9 -9.78)" style="fill:#fef3d5;fill-rule:evenodd"/><path d="M316.11,71.88c62.12,104.83-19.76,205.94-19.76,205.94,6.53.36,11.65-.17,16.23-2.29l30.53-19.23c6.71-5.34,21.66-13.48,26.21-18.8L404,204.59,378.58,80.35,281,52.47Z" transform="translate(-48.9 -9.78)" style="fill:#fee3c8;fill-rule:evenodd"/><path d="M176.35,224c47.29,49.88,120,53.82,120,53.82,6.53.36,11.65-.17,16.23-2.29l30.53-19.23c6.71-5.34,21.66-13.48,26.21-18.8L404,204.59" transform="translate(-48.9 -9.78)" style="fill:none;stroke:#000;stroke-miterlimit:10;stroke-width:2px;fill-rule:evenodd"/><path d="M342.21,229.52a10.75,10.75,0,0,1-1.63-3.9,22.22,22.22,0,0,1,3.09-17.06c.49-.73,1.23-1.51,2.09-1.31l1.22,2.43a6,6,0,0,0,5.84-2.82c.9.55.86,2,1.75,2.58,1.07.68,2.47-.42,3.7-.15,1.05.23,1.62,1.34,2,2.35a18.06,18.06,0,0,1-1,13.72,17.79,17.79,0,0,1-7.68,7.72C348.46,234.62,344.14,232.17,342.21,229.52Z" transform="translate(-48.9 -9.78)" style="fill:#ffcf35;fill-rule:evenodd"/><path d="M220.18,248.24a12.36,12.36,0,0,1-4.84-1.12,26.06,26.06,0,0,1-14.19-14.64c-.36-1-.61-2.21.17-2.89l3.16.49a7.07,7.07,0,0,0,1.31-7.51c1.15-.48,2.51.55,3.67.09,1.38-.54,1.29-2.64,2.39-3.63.93-.84,2.39-.63,3.59-.26a21.16,21.16,0,0,1,12.41,10.37A20.93,20.93,0,0,1,230,241.77C229.34,245.77,224,248.21,220.18,248.24Z" transform="translate(-48.9 -9.78)" style="fill:#ffcf35;fill-rule:evenodd"/><path d="M242.24,203.5a24.9,24.9,0,0,1-7,4.5,17.3,17.3,0,0,1-4.34,1,16.63,16.63,0,0,1-4.56-.25,16.91,16.91,0,0,1-4.32-1.45,24.92,24.92,0,0,1-3.85-2.26,35.38,35.38,0,0,1-6.31-6,41.9,41.9,0,0,1-7.93-15.22,59.2,59.2,0,0,1-2.26-16.73,64.45,64.45,0,0,1,.54-8.42c.2-1.4.44-2.81.78-4.24.17-.71.37-1.44.61-2.18.12-.37.27-.76.42-1.15s.37-.82.55-1.15a34.67,34.67,0,0,1,5.19-7.07,32.41,32.41,0,0,1,6.73-5.57,23,23,0,0,1,8.38-3.23,20.67,20.67,0,0,1,9,.49,26.1,26.1,0,0,1,7.89,3.8,39.93,39.93,0,0,1,6.36,5.56,2,2,0,0,1-2.81,2.83h0c-3.74-3.49-8-6.41-12.64-7.49a15.67,15.67,0,0,0-6.88-.1,19,19,0,0,0-6.42,2.74,27.49,27.49,0,0,0-5.46,4.79,29.09,29.09,0,0,0-4.14,6,5.91,5.91,0,0,0-.3.67c-.08.23-.17.47-.24.74-.16.53-.31,1.1-.43,1.7-.24,1.18-.43,2.42-.56,3.66a58.33,58.33,0,0,0-.29,7.6,60.9,60.9,0,0,0,2.27,15,41,41,0,0,0,6.35,13.3,35.26,35.26,0,0,0,4.93,5.46,18.14,18.14,0,0,0,6,3.69,13.54,13.54,0,0,0,6.95.58,32.23,32.23,0,0,0,7.37-2.46.51.51,0,0,1,.66.28.5.5,0,0,1-.14.57Z" transform="translate(-48.9 -9.78)"/><ellipse cx="194.16" cy="169.75" rx="15.88" ry="22.59" style="stroke:#000;stroke-linecap:round;stroke-linejoin:round;stroke-width:2px"/><path d="M275.17,206.35c4.47,4.71,7.53,5,12.71,0" transform="translate(-48.9 -9.78)" style="fill:none;stroke:#000;stroke-linecap:round;stroke-linejoin:round;stroke-width:2px;fill-rule:evenodd"/><path d="M302.41,171.43a10.88,10.88,0,0,1,1.33-5.37,15.37,15.37,0,0,1,3.41-4.31,19.26,19.26,0,0,1,4.57-2.89,23.42,23.42,0,0,1,2.5-.91c.85-.23,1.71-.4,2.57-.56a1,1,0,0,1,.63,1.88l-.1,0c-.73.36-1.47.68-2.19,1s-1.42.7-2.07,1.14a22.4,22.4,0,0,0-3.69,2.72,21,21,0,0,0-2.87,3.46,23.7,23.7,0,0,0-2.1,4l-.07.16a1,1,0,0,1-1.92-.36Z" transform="translate(-48.9 -9.78)"/><path d="M307.63,181.42a62.23,62.23,0,0,1,3.86-6,31.32,31.32,0,0,1,2.48-2.86,25.35,25.35,0,0,1,3-2.52,20.83,20.83,0,0,1,7.34-3.32,22.94,22.94,0,0,1,4-.59l2,0c.68,0,1.23.07,1.85.1a32.88,32.88,0,0,1,7.34,1.28,23.9,23.9,0,0,1,3.73,1.45,18.11,18.11,0,0,1,3.47,2.24l1.28,1.07a11.24,11.24,0,0,0,1,.74,2.77,2.77,0,0,0,2,.32,3.77,3.77,0,0,0,2-1.29,9,9,0,0,0,1.53-2.65l0,0a1,1,0,0,1,1.94.43,9.8,9.8,0,0,1-1,3.86,7,7,0,0,1-3.15,3.23,6.9,6.9,0,0,1-4.89.36,12,12,0,0,1-2.08-.85l-1.62-.88a10.84,10.84,0,0,0-2.71-1,24.05,24.05,0,0,0-3-.5c-2.09-.24-4.3-.4-6.53-.63-.54,0-1.15-.12-1.64-.15l-1.48-.09a20.4,20.4,0,0,0-2.93.16,18.81,18.81,0,0,0-5.66,1.66,20.52,20.52,0,0,0-2.72,1.54,25.88,25.88,0,0,0-2.64,1.91c-1.78,1.35-3.42,3-5.45,4.46a1,1,0,0,1-1.42-.22,1,1,0,0,1,0-1.11Z" transform="translate(-48.9 -9.78)"/><path d="M251.52,194.35a6,6,0,0,0-2.38-5.21c-1.49-1-4.66,1.24-6.79,1.24-2.58,0-4.8-2.15-6.35-.79-1.27,1.11-1.42,3.19-1.42,4.76,0,3.51,3.8,6.36,8.47,6.36S251.52,197.86,251.52,194.35Z" transform="translate(-48.9 -9.78)" style="fill:#fff;fill-rule:evenodd"/><path d="M196.61,151.85a16.55,16.55,0,0,0,4.67,1.48,6,6,0,0,0,3.88-1.05,2.38,2.38,0,0,1,2.35,4.15,2.5,2.5,0,0,1-.54.23l-.07,0a12.77,12.77,0,0,1-3.2.49,8.51,8.51,0,0,1-3.26-.59,18.89,18.89,0,0,1-4.87-3,1,1,0,0,1-.18-1.41,1,1,0,0,1,1.2-.31Z" transform="translate(-48.9 -9.78)"/><path d="M197.25,162.74l2,.8a10.68,10.68,0,0,0,1.82.6,1.48,1.48,0,0,0,.6,0,2.51,2.51,0,0,0,.42-.2c.36-.19,1-.56,1.58-.91l0,0a2.35,2.35,0,0,1,2.38,4.05,2.53,2.53,0,0,1-.7.27c-.72.15-1.4.35-2.42.48a5.32,5.32,0,0,1-1.68-.05,5.1,5.1,0,0,1-1.45-.55,14.39,14.39,0,0,1-1.93-1.38l-1.66-1.39a1,1,0,0,1,1-1.71Z" transform="translate(-48.9 -9.78)"/><path d="M248.88,236.71s-1.1,12.26,12,14.11c11,1.56,4.23,4.15,19.41,2.73l28.06-2.73c12.17-3,17.47-15.17,18.17-20.64s-6-19.41-6-19.41c-7,4.23-27.35,15.35-34.58,15s-24.18-10.24-31.24-9.89c0,0-10.06,2.65-7.06,10.94Z" transform="translate(-48.9 -9.78)" style="fill:#fff;fill-rule:evenodd"/><path d="M308.35,250.82c12.17-3,17.47-15.17,18.17-20.64s-6-19.41-6-19.41c-7,4.23-27.36,15.52-34.58,15-17.83-1.3-24.18-10.24-31.24-9.89,0,0-10.06,2.65-7.06,10.94" transform="translate(-48.9 -9.78)" style="fill:none;stroke:#000;stroke-linecap:round;stroke-linejoin:round;stroke-width:2px;fill-rule:evenodd"/><path d="M301.64,235.12s11.41-1.24,21.53-12.35" transform="translate(-48.9 -9.78)" style="fill:none;stroke:#000;stroke-linecap:round;stroke-linejoin:round;stroke-width:2px;fill-rule:evenodd"/><path d="M271.64,237.94c11.06-.53-6.25,1.7-23.37-6.06" transform="translate(-48.9 -9.78)" style="fill:none;stroke:#000;stroke-linecap:round;stroke-linejoin:round;stroke-width:2px;fill-rule:evenodd"/><path d="M248.88,236.71s-2.12,11.1,10.76,14.11c11.3,2.65,7.79,3.14,20.65,2.73" transform="translate(-48.9 -9.78)" style="fill:none;stroke:#000;stroke-linecap:round;stroke-linejoin:round;stroke-width:2px;fill-rule:evenodd"/><path d="M289.29,254.44a53.61,53.61,0,0,0,8-1.94" transform="translate(-48.9 -9.78)" style="fill:none;stroke:#000;stroke-linecap:round;stroke-linejoin:round;stroke-width:2px;fill-rule:evenodd"/><path d="M207.76,114.09a35.41,35.41,0,0,1,4-6c.75-.9,1.51-1.81,2.35-2.67a29.05,29.05,0,0,1,2.71-2.56,16.93,16.93,0,0,1,1.73-1.28,12.19,12.19,0,0,1,1.18-.66l.73-.35a30,30,0,0,1,3.38-1.42,15.06,15.06,0,0,1,4.38-.86,9.22,9.22,0,0,1,5.4,1.47,3.34,3.34,0,0,1-1,6l-2.69.71c-.29.08-.51.12-1,.23a17,17,0,0,0-2.07.67c-.81.32-1.71.73-2.75,1.16l-.78.34a2,2,0,0,0-.28.12,10,10,0,0,0-1,.62,59.44,59.44,0,0,0-4.7,3.78c-1.58,1.36-3.16,2.82-4.57,4.18l-.15.13a3,3,0,0,1-4.8-3.6Z" transform="translate(-48.9 -9.78)"/><path d="M336.87,114.32a8.65,8.65,0,0,0-1.41-2.88,20,20,0,0,0-2.64-3,37.43,37.43,0,0,0-7.13-5.17l-.07-.05a2.76,2.76,0,0,1,1.84-5.11,44.9,44.9,0,0,1,10,2.89,30.44,30.44,0,0,1,5,2.66,20.91,20.91,0,0,1,4.74,4.3l.78,1a6.31,6.31,0,1,1-9.88,7.86A6.49,6.49,0,0,1,336.87,114.32Z" transform="translate(-48.9 -9.78)"/><path d="M202.11,266.22c.06,0,.13,0,.09-.08-14.65-23.33-18.82-49.62-25.85-68.61s-7.1-58.8-3.91-58.6a.08.08,0,0,1,.07.07L179,192.37c0,.08.14.06.14,0-.76-36.7-2.55-39.18,1.29-59.88,3.88-20.94,28.35-57.88,42.94-62.35s12.23.35,23.51-2.12h0c6-4.2,6.69-4.69,9.13-11.89a.07.07,0,0,1,.11,0c6.29,6.08,8,10.9,17.33,12.39s38.72,6,49.89,9.41c13.77,4.26,28.88,15.88,49.87,39.05a0,0,0,0,1,0,0c9.35,25.35,6.65,46.88,5.18,61.17s3.53,19.65,2.94,35.53c-.53,14.36-15.19,25.67-16.21,26.44a.07.07,0,0,0,0,.1l14.56,13.58a.07.07,0,0,0,.11-.05c-.13-2.14-1.43-25.2,1.65-18.66,1.36,12.17,3.22,22.7,3.5,24.27a.06.06,0,0,0,.12,0c.62-1.39,4.56-10,6.5-10.4s13.56,15.5,15.85,18.64a.06.06,0,0,0,.11-.06,63.18,63.18,0,0,1-5.13-24.22c0-13.77,15.64-51.59,15.64-67.3s.18-26.65-1.14-32.82-.21-4.94-.86-17.3c-.61-11.65-3.62-15.55-4-16,0,0,0,0,0-.07.33-.43,3-4.72-5.91-24.91-9.41-21.41-42.59-59.06-74.82-68.23s-48-6.59-57.41-6.59c-9,0-14.52,9-15,9.82a.06.06,0,0,1-.09,0,32.94,32.94,0,0,0-23.24-7.89c-31.82,0-49.83,18.24-69.92,33.82s-32.9,56.36-36.2,70.12c-3,12.43-.78,30.14-.29,32.91,0,.08,1.32-6.54,1.32-6.61.45-4.59,3.09-37.05,3.09-7.24,0,29.23,5.51,46.95,6.44,49.24,0,.06,1.31-5.76,1.31-5.83,0-3-.68-22,3.16-19.43a.06.06,0,0,1,0,.06c-.35,9.37.38,53.1,18.12,70.55S174.79,249.22,202.11,266.22Z" transform="translate(-48.9 -9.78)" style="fill-rule:evenodd"/><path d="M167.52,247.65c-26.23-36-24.61-67.24-24.61-67.24s-2.58,12.53-4.84,9-6.19-43.76-6.19-43.76-2.41,12.65-3.53,9.53-2.47-23.65-2.47-23.65c-2.77,8.18-1,59.06,21.26,100.24C156.29,242.65,154.8,236.3,167.52,247.65Z" transform="translate(-48.9 -9.78)" style="fill-rule:evenodd"/><path d="M308.12,64.1,296,61.15a6.93,6.93,0,0,1-3.09-1.3,22.11,22.11,0,0,1-1.81-2.26c-3.52-4-10.73-.88-15.11-3.92l22.82-1.91a2.34,2.34,0,0,0,2-1.42c.51-1.4-.75-2.31-1.84-2.93l-13.91-7.92c11.13,1.57,22.35,3.16,32.9,7-.69-2-2.8-3.13-4.75-4a137.58,137.58,0,0,0-30.7-9.58,187.16,187.16,0,0,1,26.58.39c.14-2-1.66-3.63-3.57-4.17s-3.94-.3-5.92-.38a36.21,36.21,0,0,1-7.28-1.29l-12.44-3.09a106.78,106.78,0,0,1,37.54,4c-2.39-2.83-6.31-3.72-9.94-4.45l-10-2c-6.05-1.22-12.18-2.43-18.33-2.06-1.53.1-3.57.24-4.85-.69,1-1.86,6.89-.88,8.74-.87,3.64,0,7.29.1,10.93.28a126.08,126.08,0,0,1,21,2.62A94.34,94.34,0,0,1,341.49,31.5c2.25,1.29,4.69,3.07,4.84,5.66-3,.4-5.94-1-8.79-2a79.46,79.46,0,0,0-14.21-3.48,2,2,0,0,0-2.39,1.6c-.23,1.51,1.51,2.1,2.87,2.3l5.9.85c-1.09,1.37.29,3.32,1.69,4.37,6.05,4.56,13.92,6.29,19.7,11.17-.05.62-1,.63-1.54.45a99.61,99.61,0,0,1-24-11c-1.27,1.43-.58,3.84.89,5.08s3.43,1.64,5.28,2.16c11.34,3.17,20.36,11.56,28.91,19.66.12,1.14-1.34,1.92-2.44,1.61a6.13,6.13,0,0,1-2.66-2.12c-8.71-9.71-23.09-12-33.23-20.26A58.67,58.67,0,0,0,336,58.42a92.25,92.25,0,0,1-12.89-5.75,41.12,41.12,0,0,0-5.93-2.89,55.9,55.9,0,0,0-7.17-1.6,42.92,42.92,0,0,1-7.69-2.34.76.76,0,0,0-.81,1.26A25,25,0,0,0,311,53c4.93,1.84,10.18,3.41,14,7.06a85.31,85.31,0,0,1-18.68-7,17.39,17.39,0,0,0,6.06,6.23,11.51,11.51,0,0,0-9.15-1.15c2.4,3.24,6.73,4.18,10.51,5.6" transform="translate(-48.9 -9.78)" style="fill:#fff"/><path d="M150.75,73.82a93.71,93.71,0,0,0-10.19,26.55c-.56,2.53-.88,5.53.94,7.38,2.32-2,3.28-5,4.41-7.87a79.06,79.06,0,0,1,7-12.86,2,2,0,0,1,2.8-.7c1.27.85.54,2.53-.23,3.67l-3.33,4.94c1.74.12,2.25,2.45,2.1,4.19-.69,7.54-4.69,14.54-5,22.11.49.37,1.11-.29,1.37-.85a99.15,99.15,0,0,0,8-25.14c1.92,0,3.23,2.15,3.16,4.06s-1.08,3.65-1.94,5.36c-5.27,10.54-5.11,22.86-4.84,34.63.76.86,2.31.3,2.83-.73a6.17,6.17,0,0,0,.21-3.39c-1.34-13,6.58-25.2,7.31-38.23a58.71,58.71,0,0,1-1.15,17.44A92.59,92.59,0,0,0,168.58,101a41.86,41.86,0,0,1,1.84-6.34,56.17,56.17,0,0,1,3.64-6.39A42.2,42.2,0,0,0,177.48,81a.77.77,0,0,1,1.49.24,25.17,25.17,0,0,1-2,10.92c-2,4.89-4.31,9.84-4.15,15.1a85.53,85.53,0,0,0,7.37-18.55,17.35,17.35,0,0,1,.54,8.67,11.49,11.49,0,0,1,5.3-7.55c.78,4-1.43,7.8-2.91,11.55a33.9,33.9,0,0,0-2,17.32l3.65-7.53c2.26-4.67,4.57-9.41,8.08-13.23l-3.37,3.38a2.64,2.64,0,0,1-1.3.87c-1,.19-1.87-.82-1.93-1.82a5.32,5.32,0,0,1,.9-2.82l6-11a7.12,7.12,0,0,0,1.12-3.17,21.71,21.71,0,0,0-.47-2.85c-.61-5.31,6.56-8.54,7.25-13.84L184.24,82.34a2.34,2.34,0,0,1-2.4.54c-1.39-.56-1.21-2.11-.94-3.34l3.47-15.62c-6.31,9.3-12.67,18.69-16.88,29.1-1-1.87-.44-4.18.22-6.21a137.09,137.09,0,0,1,13.52-29.18,186.11,186.11,0,0,0-17.57,20c-1.56-1.23-1.56-3.67-.69-5.45s2.42-3.12,3.7-4.64a36.8,36.8,0,0,0,3.93-6.26l6.07-11.3a106.69,106.69,0,0,0-22.25,30.5c-.49-3.67,1.48-7.17,3.38-10.35L163,61.31c3.17-5.29,6.38-10.65,10.8-15,1.09-1.07,2.57-2.48,2.74-4.05-2-.54-5.28,4.51-6.51,5.89-2.43,2.72-4.82,5.47-7.14,8.29A126,126,0,0,0,150.75,73.82Z" transform="translate(-48.9 -9.78)" style="fill:#fff"/></svg>